<svg xmlns="http://www.w3.org/2000/svg" xmlns:xlink="http://www.w3.org/1999/xlink" width="80" height="40" viewBox="0 -1 80 40">
  <defs>
    <path id="thelott-logo-desktop-a" d="M-3.56393018e-14,7.52472499 C3.41878452,4.73973895 7.4059278,2.50653348 11.9156626,0.947009416 C13.9108977,0.257821502 16.8918814,-0.127689906 19.9977584,0.0383999895 C20.0546752,0.0265684373 20.1115021,0.0149161511 20.1684189,0.00335349785 C20.1684189,0.00335349785 20.2097803,0.00424982756 20.2420601,0.00622175292 C21.5441331,0.0889529851 22.8392825,0.265261039 24.1053891,0.553968838 L24.1412656,0.59233175 L24.1336227,0.608465685 C24.9501495,0.797949785 25.7481536,1.03431193 26.5110905,1.32301973 L26.550204,1.31898625 C26.550204,1.31898625 26.593004,1.313429 26.614314,1.31378753 C26.614314,1.31378753 26.711693,1.35026815 26.7798493,1.37733731 C27.5244434,1.67518767 28.2432315,2.02412883 28.9308188,2.44961654 C28.9414289,2.45615975 28.9958281,2.50617495 28.9809919,2.53602272 C29.8869851,3.10635732 30.6910136,3.78568561 31.3505472,4.58557024 C28.5209819,3.29906821 24.6777941,4.42190043 20.9243424,7.51128004 C19.9043357,7.11850836 18.8469241,6.81940314 17.7746763,6.58411659 C17.7746763,6.58411659 17.7672133,6.57954531 17.7619082,6.57201614 C17.7196477,6.56556257 17.6439385,6.55328285 17.5863024,6.54100313 C16.6041504,6.33421987 15.6112085,6.18193345 14.6136808,6.07527021 L14.6119724,6.06899591 C14.5774447,6.06702398 14.4893271,6.06173564 14.4234187,6.05501316 C13.108218,5.92343196 11.7851047,5.87090704 10.4621712,5.88856474 L10.4594737,5.88381419 C10.4216191,5.88551722 10.3228014,5.88972996 10.2487107,5.89116409 C8.76248985,5.92146004 7.27842697,6.04067189 5.81018931,6.24342167 C5.81018931,6.24342167 5.80641284,6.24198754 5.8016473,6.23929855 C5.76037587,6.24593139 5.66425571,6.261169 5.59178345,6.27165605 C3.69509625,6.5479945 1.8240351,6.96487745 -3.56393018e-14,7.52472499 Z"/>
    <path id="thelott-logo-desktop-c" d="M0,7.52472499 C3.41878452,4.73973895 7.4059278,2.50653348 11.9156626,0.947009416 C13.9108977,0.257821502 16.8918814,-0.127689906 19.9977584,0.0383999895 C20.0546752,0.0265684373 20.1115021,0.0149161511 20.1684189,0.00335349785 C20.1684189,0.00335349785 20.2097803,0.00424982756 20.2420601,0.00622175292 C21.5441331,0.0889529851 22.8392825,0.265261039 24.1053891,0.553968838 L24.1412656,0.59233175 L24.1336227,0.608465685 C24.9501495,0.797949785 25.7481536,1.03431193 26.5110905,1.32301973 L26.550204,1.31898625 C26.550204,1.31898625 26.593004,1.313429 26.614314,1.31378753 C26.614314,1.31378753 26.711693,1.35026815 26.7798493,1.37733731 C27.5244434,1.67518767 28.2432315,2.02412883 28.9308188,2.44961654 C28.9414289,2.45615975 28.9958281,2.50617495 28.9809919,2.53602272 C29.8869851,3.10635732 30.6910136,3.78568561 31.3505472,4.58557024 C28.5209819,3.29906821 24.6777941,4.42190043 20.9243424,7.51128004 C19.9043357,7.11850836 18.8469241,6.81940314 17.7746763,6.58411659 C17.7746763,6.58411659 17.7672133,6.57954531 17.7619082,6.57201614 C17.7196477,6.56556257 17.6439385,6.55328285 17.5863024,6.54100313 C16.6041504,6.33421987 15.6112085,6.18193345 14.6136808,6.07527021 L14.6119724,6.06899591 C14.5774447,6.06702398 14.4893271,6.06173564 14.4234187,6.05501316 C13.108218,5.92343196 11.7851047,5.87090704 10.4621712,5.88856474 L10.4594737,5.88381419 C10.4216191,5.88551722 10.3228014,5.88972996 10.2487107,5.89116409 C8.76248985,5.92146004 7.27842697,6.04067189 5.81018931,6.24342167 C5.81018931,6.24342167 5.80641284,6.24198754 5.8016473,6.23929855 C5.76037587,6.24593139 5.66425571,6.261169 5.59178345,6.27165605 C3.69509625,6.5479945 1.8240351,6.96487745 0,7.52472499 Z"/>
    <path id="thelott-logo-desktop-e" d="M0,7.52472499 C3.41878452,4.73973895 7.4059278,2.50653348 11.9156626,0.947009416 C13.9108977,0.257821502 16.8918814,-0.127689906 19.9977584,0.0383999895 C20.0546752,0.0265684373 20.1115021,0.0149161511 20.1684189,0.00335349785 C20.1684189,0.00335349785 20.2097803,0.00424982756 20.2420601,0.00622175292 C21.5441331,0.0889529851 22.8392825,0.265261039 24.1053891,0.553968838 L24.1412656,0.59233175 L24.1336227,0.608465685 C24.9501495,0.797949785 25.7481536,1.03431193 26.5110905,1.32301973 L26.550204,1.31898625 C26.550204,1.31898625 26.593004,1.313429 26.614314,1.31378753 C26.614314,1.31378753 26.711693,1.35026815 26.7798493,1.37733731 C27.5244434,1.67518767 28.2432315,2.02412883 28.9308188,2.44961654 C28.9414289,2.45615975 28.9958281,2.50617495 28.9809919,2.53602272 C29.8869851,3.10635732 30.6910136,3.78568561 31.3505472,4.58557024 C28.5209819,3.29906821 24.6777941,4.42190043 20.9243424,7.51128004 C19.9043357,7.11850836 18.8469241,6.81940314 17.7746763,6.58411659 C17.7746763,6.58411659 17.7672133,6.57954531 17.7619082,6.57201614 C17.7196477,6.56556257 17.6439385,6.55328285 17.5863024,6.54100313 C16.6041504,6.33421987 15.6112085,6.18193345 14.6136808,6.07527021 L14.6119724,6.06899591 C14.5774447,6.06702398 14.4893271,6.06173564 14.4234187,6.05501316 C13.108218,5.92343196 11.7851047,5.87090704 10.4621712,5.88856474 L10.4594737,5.88381419 C10.4216191,5.88551722 10.3228014,5.88972996 10.2487107,5.89116409 C8.76248985,5.92146004 7.27842697,6.04067189 5.81018931,6.24342167 C5.81018931,6.24342167 5.80641284,6.24198754 5.8016473,6.23929855 C5.76037587,6.24593139 5.66425571,6.261169 5.59178345,6.27165605 C3.69509625,6.5479945 1.8240351,6.96487745 0,7.52472499 Z"/>
    <path id="thelott-logo-desktop-g" d="M0,7.52472499 C3.41878452,4.73973895 7.4059278,2.50653348 11.9156626,0.947009416 C13.9108977,0.257821502 16.8918814,-0.127689906 19.9977584,0.0383999895 C20.0546752,0.0265684373 20.1115021,0.0149161511 20.1684189,0.00335349785 C20.1684189,0.00335349785 20.2097803,0.00424982756 20.2420601,0.00622175292 C21.5441331,0.0889529851 22.8392825,0.265261039 24.1053891,0.553968838 L24.1412656,0.59233175 L24.1336227,0.608465685 C24.9501495,0.797949785 25.7481536,1.03431193 26.5110905,1.32301973 L26.550204,1.31898625 C26.550204,1.31898625 26.593004,1.313429 26.614314,1.31378753 C26.614314,1.31378753 26.711693,1.35026815 26.7798493,1.37733731 C27.5244434,1.67518767 28.2432315,2.02412883 28.9308188,2.44961654 C28.9414289,2.45615975 28.9958281,2.50617495 28.9809919,2.53602272 C29.8869851,3.10635732 30.6910136,3.78568561 31.3505472,4.58557024 C28.5209819,3.29906821 24.6777941,4.42190043 20.9243424,7.51128004 C19.9043357,7.11850836 18.8469241,6.81940314 17.7746763,6.58411659 C17.7746763,6.58411659 17.7672133,6.57954531 17.7619082,6.57201614 C17.7196477,6.56556257 17.6439385,6.55328285 17.5863024,6.54100313 C16.6041504,6.33421987 15.6112085,6.18193345 14.6136808,6.07527021 L14.6119724,6.06899591 C14.5774447,6.06702398 14.4893271,6.06173564 14.4234187,6.05501316 C13.108218,5.92343196 11.7851047,5.87090704 10.4621712,5.88856474 L10.4594737,5.88381419 C10.4216191,5.88551722 10.3228014,5.88972996 10.2487107,5.89116409 C8.76248985,5.92146004 7.27842697,6.04067189 5.81018931,6.24342167 C5.81018931,6.24342167 5.80641284,6.24198754 5.8016473,6.23929855 C5.76037587,6.24593139 5.66425571,6.261169 5.59178345,6.27165605 C3.69509625,6.5479945 1.8240351,6.96487745 0,7.52472499 Z"/>
    <path id="thelott-logo-desktop-i" d="M0,7.52472499 C3.41878452,4.73973895 7.4059278,2.50653348 11.9156626,0.947009416 C13.9108977,0.257821502 16.8918814,-0.127689906 19.9977584,0.0383999895 C20.0546752,0.0265684373 20.1115021,0.0149161511 20.1684189,0.00335349785 C20.1684189,0.00335349785 20.2097803,0.00424982756 20.2420601,0.00622175292 C21.5441331,0.0889529851 22.8392825,0.265261039 24.1053891,0.553968838 L24.1412656,0.59233175 L24.1336227,0.608465685 C24.9501495,0.797949785 25.7481536,1.03431193 26.5110905,1.32301973 L26.550204,1.31898625 C26.550204,1.31898625 26.593004,1.313429 26.614314,1.31378753 C26.614314,1.31378753 26.711693,1.35026815 26.7798493,1.37733731 C27.5244434,1.67518767 28.2432315,2.02412883 28.9308188,2.44961654 C28.9414289,2.45615975 28.9958281,2.50617495 28.9809919,2.53602272 C29.8869851,3.10635732 30.6910136,3.78568561 31.3505472,4.58557024 C28.5209819,3.29906821 24.6777941,4.42190043 20.9243424,7.51128004 C19.9043357,7.11850836 18.8469241,6.81940314 17.7746763,6.58411659 C17.7746763,6.58411659 17.7672133,6.57954531 17.7619082,6.57201614 C17.7196477,6.56556257 17.6439385,6.55328285 17.5863024,6.54100313 C16.6041504,6.33421987 15.6112085,6.18193345 14.6136808,6.07527021 L14.6119724,6.06899591 C14.5774447,6.06702398 14.4893271,6.06173564 14.4234187,6.05501316 C13.108218,5.92343196 11.7851047,5.87090704 10.4621712,5.88856474 L10.4594737,5.88381419 C10.4216191,5.88551722 10.3228014,5.88972996 10.2487107,5.89116409 C8.76248985,5.92146004 7.27842697,6.04067189 5.81018931,6.24342167 C5.81018931,6.24342167 5.80641284,6.24198754 5.8016473,6.23929855 C5.76037587,6.24593139 5.66425571,6.261169 5.59178345,6.27165605 C3.69509625,6.5479945 1.8240351,6.96487745 0,7.52472499 Z"/>
  </defs>
  <g fill="none" fill-rule="evenodd">
    <g transform="translate(.052 .02)">
      <g transform="translate(1.81)">
        <path fill="#8D53A0" d="M37.7027499,0.0569169365 C67.0083384,1.33472457 76.6797887,23.8535744 77.2966121,36.4990836 C77.3109987,36.8335938 77.1869147,37.1587822 76.9549315,37.3998949 C76.7229483,37.640918 76.4019484,37.7845911 76.0665618,37.7845911 L72.9096126,37.7845911 L72.9096126,37.7845911 C71.4790497,17.5675917 57.4959495,1.58919257 37.7027499,0.0569169365 Z M15.5024102,22.2235988 C14.8233056,22.628132 14.2227885,23.115564 13.7026546,23.6667178 C13.8947446,23.1764021 14.0937464,22.6950151 14.2996181,22.222559 Z M36.321371,4.11881428 C37.2440886,4.69434759 38.0624137,5.38210137 38.7319279,6.19408646 C35.1749751,4.57681838 30.0162374,6.76703828 25.4473949,11.8847239 C23.9918039,11.6930601 22.4492861,12.0715031 21.3181743,12.996243 C20.9661533,13.2839648 20.6359819,13.649757 20.6359819,13.649757 C20.4732969,13.3817675 20.2791274,13.1424833 20.0603627,12.9324998 C25.2221537,6.90376254 31.5191149,3.89349086 36.321371,4.11881428 Z"/>
        <path fill="#ED1C24" d="M13.904154,7.32706962 L13.5005485,7.6031054 C12.8684185,7.53454244 12.2153303,7.67678808 11.7133517,8.09018232 C11.3317484,8.40443552 11.2389551,9.04817952 11.2389551,9.04817952 L11.2389551,9.04817952 L11.2378773,9.31711294 C10.8152813,9.66406787 10.4009192,10.0203859 9.99496908,10.3858292 C9.01492693,9.66754123 7.3774748,9.76925 6.62446822,10.778544 C6.2028523,11.3435903 6.18001364,12.1314641 6.18001364,12.1314641 C5.29101458,12.4371125 4.85941798,13.3082554 4.86355412,14.2056607 C4.87014561,14.6770986 5.04315763,15.122017 5.33105758,15.4658597 C5.01182428,15.8864034 4.70034307,16.3160658 4.39752921,16.7530605 C3.67660357,16.5530437 2.88521165,16.5082594 2.12120734,16.5132615 C1.4601146,16.5206566 0.793044764,16.6468865 0.205840139,16.9383785 L0,17.2419776 C3.75865834,11.6386782 8.96717668,7.10889599 15.4560309,4.10267015 C15.477477,4.09205884 15.5042258,4.07834806 15.5356115,4.06246552 L15.6730534,3.99391109 C16.3069566,3.68189657 17.9458583,2.92814782 20.4231508,2.15845157 C39.5506127,-3.02439571 57.9595562,13.283427 59.4938821,37.7783253 L59.4879476,37.7845772 L56.3245244,37.7845772 C55.599532,37.7845772 54.9948472,37.2260966 54.9320859,36.5056268 C53.0455345,15.4772406 40.0883495,2.11979201 24.8999546,2.29054223 C20.8704117,3.39976949 17.1830234,5.10802001 13.904154,7.32706962 Z"/>
        <path fill="#50B748" d="M33.1400545,0.0354050235 C52.3637265,0.480880889 67.0464628,16.977269 68.4677643,37.7845772 L63.9455312,37.7845772 C62.4513078,16.0315515 46.5761061,-0.498986749 28.4239626,0.426742575 C29.8937288,0.235734714 31.4690564,0.0968932416 33.1400545,0.0354050235 Z M7.07791439,21.2414007 C7.74158407,21.9653662 8.70854027,22.321478 9.66119984,22.362261 C9.79778419,22.3681252 9.93500906,22.36898 10.0720835,22.3642262 C8.8844894,24.9596501 7.9253735,27.7758706 7.25026444,30.7863701 L7.07791439,30.7871329 Z M31.4763396,2.20801861 C32.3410613,2.4070038 33.1851923,2.65833465 33.9893108,2.96855436 C28.0911205,3.55586139 22.0768574,6.69012159 17.1528951,11.8312365 C16.7598991,11.8351352 16.3648587,11.887182 15.9847193,11.9946842 C15.9847193,11.9946842 15.9523496,12.0038267 15.9113479,12.0165546 L15.9113479,12.0165546 L15.9113479,10.6069865 C15.909295,10.0969516 15.8342756,9.57874833 15.6387999,9.1166193 C20.1818283,5.42064489 25.5873549,3.00161075 31.4763396,2.20801861 Z"/>
        <path fill="#FD0" d="M29.9082952,0.342770625 C34.3828729,0.351988677 38.8462111,1.44586945 42.8580813,3.42693738 C48.8384815,6.37998524 53.7923112,11.2006257 57.3341907,16.8468754 C61.0298264,22.7381817 63.2151438,29.5361255 63.8822303,36.4429733 C63.9230522,36.8655928 63.9579396,37.2886604 63.9878816,37.7120866 L63.9934878,37.7845772 L59.4496434,37.7845772 L59.4469459,37.7781461 C58.960051,30.0972279 56.7706874,22.5597225 52.6448937,16.1380579 C49.612478,11.4184338 45.5151877,7.33780317 40.6202529,4.65419202 C36.9441289,2.63879466 32.8077252,1.433769 28.6209685,1.26445232 C25.8682813,1.15312817 23.1033657,1.4835153 20.4353794,2.20353696 C20.4353794,2.20353696 20.4177559,2.20900457 20.4002222,2.19914494 C20.3894323,2.19313953 20.3800811,2.18390734 20.3755853,2.17324101 C22.6134136,1.47517944 25.5421562,0.761611354 29.0375491,0.350823448 C29.3274381,0.342770625 29.6188557,0.342770625 29.9082952,0.342770625 Z M5.30366678,15.4324091 C5.5180995,15.7002049 5.80065837,15.9103165 6.12831197,16.0294227 C6.12831197,16.0294227 6.15178003,16.0379379 6.18307079,16.0480664 L6.18307079,16.0480664 L6.18307079,17.8394709 C5.69765874,17.2627899 5.05694932,16.9289875 4.35140352,16.7404729 C4.63461849,16.3317703 4.92721542,15.92838 5.22811953,15.5307774 Z M11.2385775,9.27137189 L11.2383535,9.87559861 L11.2383535,9.87559861 L11.2382224,10.0558647 L11.2373988,11.1886874 L11.2373988,11.1886874 L11.2372751,11.3587083 L11.2367972,12.0161064 C11.0970678,12.0042749 10.9567089,12.0042749 10.8163501,12.0042749 C10.7971081,11.7271298 10.7435182,11.451598 10.6380468,11.1947995 C10.4961779,10.8493143 10.2600399,10.5723026 9.96858697,10.365982 C10.3829604,9.99154352 10.8066895,9.62654003 11.2385775,9.27137189 Z M27.6234408,1.61473797 C28.9244348,1.6974692 30.2197641,1.87359799 31.4867698,2.16248506 L31.5226463,2.20084797 L31.5001673,2.24817418 C31.5001673,2.24817418 31.452778,2.25595073 31.3945125,2.26503737 L31.2742984,2.2830414 L31.2742984,2.2830414 C25.9731234,3.03945404 20.8262441,5.20812378 16.5244848,8.47784492 C16.2307005,8.70114613 15.940867,8.92933656 15.6550304,9.16224085 C15.584148,8.97995326 15.4928184,8.80651167 15.380574,8.64510005 C14.9674176,8.05088619 14.2155143,7.66471227 13.4403833,7.59722321 C14.4528495,6.88552001 15.5022059,6.22661777 16.5835596,5.62545489 C19.9980282,3.72729746 23.7134454,2.39167656 27.5497997,1.61186972 C27.5497997,1.61186972 27.591161,1.61276605 27.6234408,1.61473797 Z"/>
        <path fill="#0099D9" d="M35.0626375,0 C36.3772088,0 37.6547347,0.0412311666 38.8960245,0.12127341 C43.7544534,0.6513628 48.6323941,2.13236838 52.9906205,4.56061519 C58.1895612,7.45746318 62.6330279,11.6587398 65.9277284,16.61132 C69.7625541,22.3754371 72.0545118,29.1416508 72.7981168,36.0075363 C72.8601588,36.5759886 72.9105117,37.1454269 72.9518731,37.7156719 L72.9563571,37.7845772 L68.421008,37.7845772 L68.421008,37.7845772 C67.951377,30.9744434 66.0457881,24.3437771 62.6976775,18.4958532 C58.6631485,11.448909 52.462634,5.60304665 44.9453004,2.53132473 C41.2290739,1.01285257 37.2345575,0.186884744 33.1950831,0.0834482959 L33.1189243,0.077173988 C33.1060963,0.050343852 33.0996823,0.036928784 33.0996823,0.036928784 C33.7400637,0.0127278819 34.394562,0 35.0626375,0 Z M12.0369593,21.7867277 C12.5290693,22.1591527 13.1321356,22.2269152 13.7321448,22.2248537 C13.7512969,22.2246744 13.7702692,22.2242262 13.7891515,22.2235988 L13.7891515,22.2235988 L14.3521959,22.2225385 C14.1577411,22.6685355 13.9711221,23.1184412 13.7922731,23.5719338 C11.9529359,25.4627501 11.0829414,28.1360348 11.2582871,30.7871329 L11.2582871,30.7871329 L7.20331354,30.7871204 C7.85479095,27.8912548 8.79224994,25.0584169 10.0163001,22.3645031 C10.5527727,22.3529778 11.0867897,22.2560251 11.5731727,22.0394031 C11.7949055,21.9406275 12.0369593,21.7867277 12.0369593,21.7867277 Z M33.9956049,2.92212449 C33.9956049,2.92212449 34.0930738,2.95878437 34.1612301,2.98585353 C34.8947644,3.27931187 35.6085173,3.62583294 36.2781214,4.03706901 C36.2800097,4.03823424 36.3442996,4.07785201 36.3460979,4.07919651 C36.4537273,4.15753572 36.319213,4.16542342 36.319213,4.16542342 C33.8557856,4.05508524 31.4260766,4.75081636 29.1937331,5.80077698 C25.6774177,7.45480908 22.6277881,10.0028145 20.092752,12.9649496 C19.349108,12.2314747 18.3084663,11.8451253 17.2533436,11.8302973 C17.1939488,11.8297979 17.134486,11.8303646 17.075012,11.8320254 C18.2490669,10.6073818 19.5188727,9.46302716 20.8833407,8.41456404 C24.5217899,5.61864278 28.7758936,3.60091497 33.3024428,3.0012704 C33.5293906,2.97124335 33.7567881,2.94516016 33.9846351,2.92212449 L33.9956049,2.92212449 L33.9956049,2.92212449 Z"/>
      </g>
      <g transform="translate(9.192 1.609)">
        <mask id="thelott-logo-desktop-b" fill="#fff">
          <use xlink:href="#thelott-logo-desktop-a"/>
        </mask>
        <path fill="#7D478C" d="M5.37724398,24.7378407 C10.0726553,9.84890792 21.36556,2.15490333 28.9399903,2.51029806 C29.8627078,3.08583137 30.6810329,3.77358515 31.3505472,4.58557024 C26.0123267,2.15839902 17.0663184,8.30704156 11.9210576,20.0567588 C8.77040245,20.4395812 6.42953042,22.1562319 5.37724398,24.7378407 Z" mask="url(#thelott-logo-desktop-b)"/>
        <mask id="thelott-logo-desktop-d" fill="#fff">
          <use xlink:href="#thelott-logo-desktop-c"/>
        </mask>
        <path fill="#CD181E" d="M20.1543021,0.0472736536 L20.1777702,0.049066313 C14.9293692,1.11173535 10.1989609,3.15298946 6.11875622,5.99600379 C5.48703777,5.92602623 4.8339496,6.06827187 4.33197098,6.4816661 C3.95036766,6.7959193 3.85757439,7.4396633 3.85757439,7.4396633 L3.85757439,7.4396633 L3.85649652,7.70859672 C3.43390055,8.05555166 3.0195385,8.41186973 2.61358833,8.77731293 C1.63354619,8.05902501 -0.00390594917,8.16073378 -0.756912526,9.1700278 C-1.17852845,9.73507405 -1.2013671,10.5229479 -1.2013671,10.5229479 C-2.09036617,10.8285963 -2.52196276,11.6997391 -2.51782663,12.5971444 C-2.51123514,13.0685824 -2.33822311,13.5135008 -2.05032316,13.8573435 C-2.36985558,14.2782851 -2.68153841,14.708242 -2.98454213,15.1455409 C-3.70550355,14.9444864 -4.49651971,14.8997455 -5.2601734,14.9047453 C-5.92126614,14.9121404 -6.58833598,15.0383702 -7.17554061,15.3298623 L-7.38138075,15.6334613 C-2.90770222,8.9642305 3.61992651,3.81580228 11.9156626,0.947009416 C13.9444364,0.246258849 16.9922276,-0.140597053 20.1543021,0.0472736536 Z" mask="url(#thelott-logo-desktop-d)"/>
        <mask id="thelott-logo-desktop-f" fill="#fff">
          <use xlink:href="#thelott-logo-desktop-e"/>
        </mask>
        <path fill="#439F3F" d="M-1.73375948,20.5026828 C3.36807192,9.55661481 12.8501592,2.11483739 24.0949588,0.599502387 C24.9596806,0.798487583 25.8038116,1.04981843 26.60793,1.36003815 C14.997622,2.5161242 2.93755432,13.5411589 -0.370813407,30.3156109 L-1.55941244,30.3156109 C-1.68673344,30.1618007 -1.73375948,29.9831622 -1.73375948,29.698936 L-1.73375948,20.5026828 Z" mask="url(#thelott-logo-desktop-f)"/>
        <mask id="thelott-logo-desktop-h" fill="#fff">
          <use xlink:href="#thelott-logo-desktop-g"/>
        </mask>
        <path fill="#DFC000" d="M-2.07771397,13.8238928 C-1.86328125,14.0916886 -1.58072238,14.3018003 -1.25306878,14.4209065 C-1.25306878,14.4209065 -1.22960071,14.4294216 -1.19830996,14.4395502 L-1.19830996,14.4395502 L-1.19830996,16.2309547 C-1.68372201,15.6542737 -2.32443143,15.3204713 -3.02997722,15.1319567 C-2.74676225,14.7232541 -2.45416533,14.3198638 -2.15326122,13.9222611 Z M3.85719673,7.66285567 L3.85697277,8.2670824 L3.85697277,8.2670824 L3.8568417,8.44734853 L3.85601802,9.58017113 L3.85601802,9.58017113 L3.8558944,9.7501921 L3.85541641,10.4075902 C3.71568701,10.3957587 3.5753282,10.3957587 3.43496939,10.3957587 C3.41572738,10.1186135 3.36213747,9.84308178 3.25666605,9.58628332 C3.11479718,9.24079812 2.87865911,8.96378637 2.58720622,8.75746583 C3.00157962,8.3830273 3.4253088,8.01802382 3.85719673,7.66285567 Z M20.2420601,0.00622175292 C21.5430541,0.0889529851 22.8383833,0.265081773 24.1053891,0.553968838 L24.1412656,0.59233175 L24.1187866,0.639657958 C24.1187866,0.639657958 24.0713973,0.647434515 24.0131317,0.656521147 L23.8929177,0.674525184 L23.8929177,0.674525184 C18.5917426,1.43093783 13.4448633,3.59960756 9.14310409,6.8693287 C8.84931975,7.09262991 8.55948628,7.32082034 8.27364965,7.55372463 C8.20276723,7.37143704 8.11143766,7.19799545 7.99919329,7.03658383 C7.58603683,6.44236997 6.83413355,6.05619605 6.0590026,5.98870699 C7.07146871,5.2770038 8.12082511,4.61810156 9.20217888,4.01693867 C12.6166474,2.11878124 16.3320647,0.783160345 20.1684189,0.00335349785 C20.1684189,0.00335349785 20.2097803,0.00424982756 20.2420601,0.00622175292 Z" mask="url(#thelott-logo-desktop-h)"/>
        <mask id="thelott-logo-desktop-j" fill="#fff">
          <use xlink:href="#thelott-logo-desktop-i"/>
        </mask>
        <path fill="#0085BF" d="M3.42678704,30.3623097 L-0.370813407,30.3623097 L-0.416310881,30.3269943 L-0.416760461,30.3065579 C1.39666456,21.164712 6.02994391,12.5475774 13.5019599,6.80604783 C17.1404091,4.01012656 21.3945129,1.99239876 25.921062,1.39275418 C26.1480099,1.36272713 26.3754073,1.33664394 26.6032544,1.31360827 C26.6069409,1.31360827 26.6106275,1.31360827 26.6142241,1.31360827 C26.6142241,1.31360827 26.711693,1.35026815 26.7798493,1.37733731 C27.5133837,1.67079566 28.2271366,2.01731672 28.8967407,2.42855279 C28.8986289,2.42971802 28.9629188,2.46933579 28.9647172,2.47068029 C29.0723466,2.54901951 28.9378323,2.55690721 28.9378323,2.55690721 C26.4744048,2.44656902 24.0446958,3.14230014 21.8123524,4.19226076 C18.2223679,5.88094593 15.1188287,8.50145547 12.5527172,11.5431503 C9.30567214,15.3919005 6.95302113,19.9148698 5.42139271,24.7536161 C5.22330786,25.2419366 5.07557594,25.748811 4.97451041,26.2659036 C4.61718439,27.5636098 4.31542644,28.8887436 4.07103487,30.2210481 C4.07103487,30.2210481 3.98066933,30.2767998 3.8903038,30.2982221 C3.73825591,30.3342545 3.58288114,30.354153 3.42678704,30.3623097 Z" mask="url(#thelott-logo-desktop-j)"/>
      </g>
      <g transform="translate(17.2)">
        <path fill="#9E6FAF" d="M42.2839679,7.7260932 C36.7567441,3.40264684 29.9700675,0.64957014 22.3140834,0.0569169365 C33.5830705,0.548284883 41.9488511,4.18048176 48.0129631,9.184332 L48.0697,9.23129968 L48.0741958,9.23506426 C46.2988053,8.52382664 44.3567105,8.01390466 42.2839679,7.7260932 Z"/>
        <path fill="#79C266" d="M33.9645839,7.72125301 C28.0111584,2.77602274 20.7276062,0.0344190608 13.0352961,0.426742575 C14.5050624,0.235734714 16.0803899,0.0968932416 17.7513881,0.0354050235 C25.4008083,0.212609407 32.3311706,2.93046035 37.9930885,7.44984438 L37.9912902,7.44993401 L37.9912902,7.44993401 C36.6840021,7.45826988 35.3394888,7.54691689 33.9645839,7.72125301 Z"/>
        <path fill="#F05B40" d="M27.2572131,9.19230933 C19.8669307,2.54297702 10.0197847,0.353781336 0,4.1384439 C0.15123864,4.05777423 1.93786871,3.12057188 5.03448435,2.15845157 C14.3356607,-0.361848304 23.4668959,2.19959311 30.5706161,8.31309952 L30.5653111,8.31417512 C29.4754398,8.55340552 28.3719013,8.84578827 27.257303,9.19239897 L27.2572131,9.19230933 Z"/>
        <path fill="#FFE24F" d="M30.5092036,8.3266341 C28.8781281,6.92459517 27.1137972,5.68613641 25.2315865,4.65419202 C21.5554625,2.63879466 17.4190587,1.433769 13.232302,1.26445232 C10.4796149,1.15312817 7.7146992,1.4835153 5.04671292,2.20353696 C5.04671292,2.20353696 4.4037408,2.36566787 4.43829867,2.34879877 C4.47285653,2.33192968 4.94083518,2.18839777 4.98691881,2.17324101 C7.22474715,1.47517944 10.1534897,0.761611354 13.6488826,0.350823448 C13.9387717,0.342397949 14.2301893,0.342861797 14.5196287,0.342861797 C18.9942064,0.351988677 23.4575446,1.44586945 27.4694148,3.42693738 C29.8210767,4.58813252 32.014037,6.03821472 34.0248276,7.71363421 L33.9599082,7.72179081 L33.9610771,7.72277678 C32.8471983,7.86287311 32.5346504,7.88205456 30.5653111,8.31417512 L30.5092036,8.3266341 Z"/>
        <path fill="#14A7DF" d="M37.8940011,7.45074071 C35.3620577,5.43390923 32.5647722,3.76046166 29.5566339,2.53132473 C25.8404074,1.01285257 21.845891,0.186884744 17.8064166,0.0834482959 L17.7302578,0.077173988 L17.7110158,0.036928784 C18.3513973,0.0127278819 19.0058955,4.4408921e-15 19.6739711,4.4408921e-15 C20.9885424,4.4408921e-15 22.2660683,0.0412311666 23.5073581,0.12127341 C28.365787,0.6513628 33.2437276,2.13236838 37.6019541,4.56061519 C39.2718732,5.49109507 40.8638352,6.55611403 42.3648023,7.73747658 C41.6013259,7.62911032 40.8201361,7.55104 40.0228513,7.50407233 L40.0211429,7.50245893 C39.3556749,7.46293079 38.6786977,7.44509383 37.9912902,7.44993401 L37.9912902,7.44993401 L37.8940011,7.45074071 Z"/>
      </g>
      <g transform="translate(0 7.587)">
        <path fill="#FFF" d="M17.191224,1.05846827 C17.5819088,1.62028773 17.7192105,2.32785041 17.7219979,3.02035474 L17.7219979,4.42992284 C17.7629995,4.41719496 17.7953693,4.40805239 17.7953693,4.40805239 C18.2077239,4.2914399 18.6376121,4.24008021 19.0639935,4.24366553 C20.4097657,4.26257808 21.7319798,4.88588576 22.4466318,6.0631252 C22.4466318,6.0631252 22.7768032,5.69733305 23.1288242,5.40961121 C25.125408,3.77730518 28.4038337,3.84712926 30.2243621,5.75111283 C31.1254099,6.69342425 31.5822729,8.01237342 31.5858695,9.32029773 L31.5858695,9.50700321 C31.562941,10.0266952 31.394978,10.5471042 31.0212872,10.8832278 C31.0212872,10.8832278 31.0373822,10.9209633 31.0602209,10.9828997 C31.5089015,10.3353015 32.15243,9.82645512 32.9122198,9.58346014 C33.5481954,9.37999329 34.2244533,9.36771358 34.9107818,9.37470495 C36.4300018,9.40096741 37.9492218,10.0929339 38.5360134,11.7148426 C38.7511822,12.309378 38.8249133,12.9463099 38.8261721,13.5757127 C38.8261721,13.5757127 39.5062964,13.5849449 39.5062964,13.5849449 L39.506746,13.4962978 L39.506746,13.4962978 C39.526078,12.1245549 40.0636855,10.7169587 41.2332223,9.97784521 C42.1875903,9.37470495 43.4210574,9.30559793 44.4931253,9.39406567 C45.8759428,9.50816844 47.1920427,10.287079 47.70852,11.7151115 C47.9234191,12.3091988 47.99733,12.9449654 47.9985888,13.5757127 C47.9985888,13.5757127 48.0296698,13.5767385 48.0711111,13.5781062 L48.2057952,13.5825513 C48.2472364,13.5839191 48.2783174,13.5849449 48.2783174,13.5849449 C48.2783174,13.5849449 48.8669072,13.5862894 49.3541618,13.6865886 C50.4524852,13.912643 51.4367053,14.6966626 51.7782061,15.7706449 C52.2763405,17.3371603 51.9155078,19.142458 50.6692726,20.0611959 C49.9784483,20.5705801 49.0902585,20.763291 48.2187031,20.7665178 L47.8788208,20.7665178 L47.8788208,24.2900795 C47.8788208,24.2900795 48.3262426,23.9761848 48.7572997,23.8672808 C49.7729903,23.6104823 50.9055717,24.0889431 51.4661977,25.0009586 C52.3665262,26.4654717 52.1486598,28.5257751 50.9364129,29.8603205 C49.6661702,31.2586844 47.5534149,31.7390275 45.6561882,31.6554896 C44.1765313,31.5902368 42.6753844,31.2062491 41.502071,30.1860467 L41.4667341,30.1548544 C40.2017964,31.312016 38.3515957,31.717426 36.6034497,31.6601505 C34.8686112,31.6032336 33.0963677,31.0652565 31.9332149,29.8071681 C31.3737578,29.2021455 30.9731822,28.4614187 30.7189898,27.6757857 L30.7119764,27.6535567 C30.6949822,27.6799088 30.6778083,27.7061713 30.6605444,27.7323441 C29.3491202,29.7116194 27.151754,31.0213363 24.7956862,31.4644817 C21.9986705,31.9906273 18.9438658,31.5600305 16.654156,29.9580204 C16.654156,29.9580204 16.6628778,29.9231532 16.5734114,30.0219287 C15.7873661,30.8781925 14.5788058,31.241206 13.3851714,31.2480181 C10.4210919,31.2527687 7.45701238,31.2542924 4.49302278,31.2479285 C2.95599941,31.2377999 1.4063878,30.5845549 0.626366877,29.2011596 C0.180653478,28.4105968 0.0119711421,27.4802065 0.00657618472,26.5687289 C-0.00241541098,22.07982 -0.00196583119,17.5910009 0.00657618472,13.102092 C0.0144887889,11.7079408 0.524042517,10.2600098 1.73512054,9.50825807 C2.38530283,9.10473044 3.16262628,8.93523449 3.93185729,8.92662973 C5.42410251,8.91685973 7.02083008,9.097022 7.99372073,10.2528392 L7.99372073,8.46143461 C7.96242998,8.45130608 7.93896191,8.44279095 7.93896191,8.44279095 C7.19652586,8.17290607 6.68562339,7.43576452 6.67420406,6.61902889 C6.67006793,5.72162358 7.10166452,4.85048074 7.99066359,4.54483231 C7.99066359,4.54483231 8.01350224,3.75695849 8.43511817,3.19191225 C9.40216428,1.89572985 11.827917,2.09641807 12.4486967,3.60816776 C12.5541682,3.86496622 12.6077581,4.14049798 12.6270001,4.41764312 C12.7673589,4.41764312 12.9077177,4.41764312 13.0474471,4.42947467 L13.0479251,3.77207654 C13.0479648,3.71743566 13.0480061,3.66059938 13.0480487,3.60205558 L13.0488724,2.46923297 C13.0489171,2.40776197 13.0489609,2.34751064 13.0490035,2.28896684 L13.0496051,1.46154774 L13.0496051,1.46154774 C13.0496051,1.46154774 13.1423983,0.817803744 13.5240017,0.503550548 C14.6244831,-0.402728421 16.4512157,-0.00583362573 17.191224,1.05846827 Z M22.5778192,20.4976984 C22.0632302,20.5021901 21.5472025,20.7024302 21.2249437,21.0897342 C20.8549396,21.5344034 20.7458715,22.1569044 20.7998211,22.7247293 C20.8578169,23.3345024 21.1573269,23.962471 21.7396227,24.2445459 C22.4949167,24.6105173 23.4979292,24.4138626 23.9970527,23.7601693 C24.3050148,23.3567313 24.4197476,22.8263731 24.3927728,22.320126 C24.3573459,21.6558561 24.0445283,20.9560019 23.3915586,20.6595856 C23.1379956,20.5444969 22.85512,20.4969018 22.5778192,20.4976984 Z M39.5062964,20.7665178 L38.7064041,20.7665178 C38.7064041,21.9528998 38.6954343,23.1393714 38.7065839,24.3255741 C38.7065839,24.3255741 38.8063906,24.2790546 38.8633074,24.2366582 C38.9350604,24.1841333 38.9394663,24.182251 38.9723755,24.1607391 C39.0398125,24.11655 39.1094973,24.0758567 39.1810704,24.0388383 C39.3079418,23.9731373 39.5062964,23.9003553 39.5062964,23.9003553 L39.5062964,20.7665178 Z M8.88856434,13.6547689 L8.88856434,23.2005011 L13.068937,23.2005011 C12.8460354,19.830391 14.3123848,16.4244277 17.3130601,14.636967 L15.5998015,14.636967 C15.5809191,14.6375945 15.5619468,14.6380426 15.5427947,14.6382219 C14.9427856,14.6402835 14.3397192,14.5725209 13.8476092,14.2000959 C13.8476092,14.2000959 13.6055554,14.3539957 13.3838227,14.4527713 C12.7891186,14.7176367 12.123201,14.8035947 11.4718498,14.7756292 C10.5191902,14.7348462 9.55223402,14.3787344 8.88856434,13.6547689 Z"/>
        <path fill="#111C4E" d="M4.85187736,10.3521525 C6.55938139,10.3521525 7.45827121,11.2777922 7.45827121,13.1291612 L7.45827121,13.1291612 L7.45827121,23.7208205 C7.45827121,24.0427821 7.51860482,24.2292187 7.68764681,24.397639 C7.86181402,24.5712581 8.04353417,24.6262927 8.36660221,24.6262927 L8.36660221,24.6262927 L13.192032,24.6262927 C13.5994412,24.6061253 14.5054343,24.4632504 14.5422999,23.6038494 C14.4985108,23.2301696 14.4736041,22.8450167 14.4736041,22.4462396 C14.4736041,17.817593 17.7387222,14.7119898 22.6517301,14.7119898 C25.4501845,14.7119898 27.6988027,15.7461751 29.1028404,17.5138269 C29.1012219,17.4756432 29.0980748,17.4387144 29.0980748,17.3995448 L29.0980748,17.3995448 L29.0980748,17.0712193 C29.0980748,15.7272625 29.8768369,15.0107365 31.4347208,15.0107365 L31.4347208,15.0107365 L31.7641729,15.0107365 L31.7641729,13.5771468 C31.7641729,11.7556256 32.6929148,10.7999588 34.3404449,10.7999588 L34.3404449,10.7999588 L34.8198768,10.7999588 C36.347369,10.7999588 37.3957891,11.4568789 37.3957891,13.5771468 L37.3957891,13.5771468 L37.3957891,15.0107365 L40.9365896,15.0107365 L40.9365896,13.5771468 C40.9365896,11.7556256 41.8652416,10.7999588 43.5127717,10.7999588 L43.5127717,10.7999588 L43.9922935,10.7999588 C45.5196059,10.7999588 46.5682957,11.4568789 46.5682957,13.5771468 L46.5682957,13.5771468 L46.5682957,15.0107365 L48.2758897,15.0107365 C49.8035618,15.0107365 50.5227096,15.6674773 50.5227096,16.981407 L50.5227096,16.981407 L50.5227096,17.2802433 C50.5227096,18.6238416 49.7435878,19.3407261 48.2160955,19.3407261 L48.2160955,19.3407261 L46.4485277,19.3407261 L46.4485277,24.2976086 C46.4485277,25.2833024 46.8377738,25.7908939 47.7066317,25.7908939 C48.1562115,25.7908939 48.4475392,25.6667523 48.7215131,25.443118 C48.944145,25.2629557 49.2332248,25.1858714 49.5163702,25.231136 C49.7995155,25.2763111 50.0499315,25.4396223 50.2049466,25.6801076 C50.4304558,26.0253738 50.6123558,26.4652028 50.6123558,26.9855222 C50.6123558,28.8966764 48.8748198,30.2403642 46.1488378,30.2403642 C43.6507027,30.2403642 42.0844567,29.340987 41.3781668,27.57217 C41.0561778,29.1650375 39.4135032,30.2403642 36.9764211,30.2403642 C33.4415551,30.2403642 31.7641729,28.4486908 31.7641729,24.9250394 L31.7641729,24.9250394 L31.7641729,19.3407261 L31.4347208,19.3407261 C30.8658226,19.3407261 30.3968209,19.2451773 30.031942,19.0608023 C30.4724402,20.0648709 30.7099982,21.2127107 30.7099982,22.476177 C30.7099982,27.1945463 27.4746422,30.2403642 22.5616343,30.2403642 C19.7389926,30.2403642 17.5038618,29.2455279 16.1045896,27.5089787 C15.9974997,29.0102414 15.0989696,29.8222264 13.3595454,29.8222264 L13.3595454,29.8222264 L4.5224253,29.8222264 C2.5451734,29.8222264 1.4367794,28.7175897 1.4367794,26.5375366 L1.4367794,26.5375366 L1.4367794,13.1291612 C1.4367794,11.2777922 2.33539947,10.3521525 3.98301947,10.3521525 L3.98301947,10.3521525 Z M22.5915764,19.0718272 C20.7046001,19.0718272 19.3565801,20.4755691 19.3565801,22.4462396 C19.3565801,24.4471164 20.6743883,25.8505895 22.5915764,25.8505895 C24.4493299,25.8505895 25.8271122,24.4172687 25.8271122,22.476177 C25.8271122,20.4755691 24.4788224,19.0718272 22.5915764,19.0718272 Z M40.9365896,19.3407261 L37.276111,19.3407261 L37.276111,24.2976086 C37.276111,25.2833024 37.6654471,25.7908939 38.534305,25.7908939 C39.065978,25.7908939 39.3775368,25.6421032 39.7006048,25.3929235 C39.9986762,25.1640009 40.4057258,25.1364836 40.7320308,25.3231891 C40.8257232,25.3760725 40.901882,25.4255499 40.9538534,25.4873071 C40.9437829,25.3043662 40.9365896,25.1184674 40.9365896,24.9250394 L40.9365896,24.9250394 L40.9365896,19.3407261 Z M10.4174054,3.56881889 C11.0215507,3.56881889 11.4189792,3.82239056 11.4189792,4.6464761 L11.4189792,5.62912236 L12.770416,5.62912236 C13.4063916,5.62912236 13.676679,5.89855907 13.676679,6.42156745 L13.676679,6.54839811 C13.676679,7.08727153 13.3904765,7.37248364 12.7385858,7.37248364 L11.3713237,7.37248364 L11.3713237,10.6690947 C11.3713237,11.4298097 11.625696,11.810212 12.2298413,11.810212 C12.8339866,11.810212 13.0044673,11.4748055 13.2391479,11.4324091 C13.5002639,11.3852621 13.7720798,11.7012183 13.7720798,12.1588843 C13.7720798,12.9354643 12.9930479,13.5694384 11.7210968,13.5694384 C10.0039718,13.5694384 9.20902481,12.6660276 9.20902481,10.9226664 L9.20902481,7.37248364 L8.8275114,7.37248364 C8.19153584,7.37248364 7.88941822,7.10304693 7.88941822,6.59590358 L7.88941822,6.45329753 C7.88941822,5.9144241 8.19153584,5.62912236 8.8275114,5.62912236 L9.20902481,5.62912236 L9.20902481,4.6464761 C9.20902481,3.91749114 9.59062813,3.56881889 10.2266037,3.56881889 L10.4174054,3.56881889 Z M26.5070566,5.45478623 C28.7249517,5.45478623 30.2714032,6.95705749 30.3658905,9.11141755 L30.3704755,9.32191113 L30.3704755,9.48038222 C30.356089,9.84062528 30.2627845,10.0567148 29.9353877,10.0930266 L29.8299907,10.0984912 L24.4879039,10.0984912 C24.6468753,11.2554736 25.521308,11.9369531 26.7296885,11.9369531 C28.2732758,11.9369531 28.6823035,11.0205456 28.9847807,10.9223078 C29.2761984,10.8276554 30.0048773,11.0338112 30.0048773,11.810212 C30.0048773,12.6342976 28.8124118,13.5694384 26.6502028,13.5694384 C24.1222157,13.5694384 22.452836,12.0004132 22.452836,9.55961777 C22.452836,7.19814751 24.1540459,5.45478623 26.5070566,5.45478623 Z M15.1076015,1.23181844 C15.7753174,1.23181844 16.5066938,1.58049069 16.5066938,3.02277483 L16.5066938,3.02277483 L16.5066938,6.84947526 C16.9995232,6.04116512 17.8103853,5.45478623 19.0027608,5.45478623 C21.0378286,5.45478623 21.8964361,6.9129354 21.8964361,8.7196672 L21.8964361,8.7196672 L21.8964361,12.3649505 C21.8964361,13.173171 21.4830025,13.4267427 20.9106875,13.4267427 L20.9106875,13.4267427 L20.6721404,13.4267427 C20.0679951,13.4267427 19.6546515,13.189036 19.6546515,12.3649505 L19.6546515,12.3649505 L19.6546515,9.03660938 C19.6546515,7.95895217 19.1140767,7.32497817 18.2237289,7.32497817 C17.1744097,7.32497817 16.5066938,8.02232268 16.5066938,9.13170996 L16.5066938,9.13170996 L16.5066938,12.3649505 C16.5066938,13.173171 16.0932602,13.4267427 15.5209452,13.4267427 L15.5209452,13.4267427 L15.282488,13.4267427 C14.6782528,13.4267427 14.2649092,13.189036 14.2649092,12.3649505 L14.2649092,12.3649505 L14.2649092,1.48539011 C14.2649092,1.40615457 14.6624276,1.23181844 15.1076015,1.23181844 Z M26.4753163,7.00794635 C25.4259072,7.00794635 24.6309602,7.75288597 24.4879039,8.79890274 L28.2877522,8.79890274 C28.2400069,7.7211559 27.5563758,7.00794635 26.4753163,7.00794635 Z"/>
      </g>
    </g>
  </g>
</svg>
